<?xml version="1.0" standalone="no"?>
<!DOCTYPE svg PUBLIC "-//W3C//DTD SVG 20010904//EN"
 "http://www.w3.org/TR/2001/REC-SVG-20010904/DTD/svg10.dtd">
<svg version="1.0" xmlns="http://www.w3.org/2000/svg"
 width="200px" height="200px" viewBox="100 0 1000.000000 900.000000"
 preserveAspectRatio="xMidYMid meet">

<g transform="translate(0.000000,520.000000) scale(0.100000,-0.100000)"
fill="#000000" stroke="none">
<path d="M4305 5194 c-658 -68 -1184 -313 -1622 -755 -403 -407 -640 -894
-725 -1484 -19 -136 -16 -522 6 -665 44 -291 119 -533 242 -780 134 -271 283
-477 496 -687 396 -393 877 -632 1448 -720 161 -24 539 -24 700 0 574 89 1049
324 1449 720 411 407 659 908 743 1502 16 119 17 514 0 630 -71 496 -262 943
-557 1300 -416 504 -974 820 -1625 920 -101 15 -468 28 -555 19z m517 -428
c462 -72 859 -275 1194 -610 255 -255 417 -517 525 -846 242 -740 70 -1542
-455 -2118 -186 -204 -439 -391 -682 -502 -70 -33 -245 -100 -259 -100 -2 0
-5 116 -7 258 -4 234 -7 263 -27 321 -28 81 -75 155 -129 203 -23 21 -42 40
-42 42 0 2 30 6 68 10 231 23 515 121 661 229 261 191 389 472 408 897 12 269
-46 481 -178 655 -24 32 -49 65 -56 74 -9 13 -8 31 8 86 42 150 33 347 -24
514 l-23 66 -63 3 c-114 5 -353 -87 -545 -211 l-69 -44 -51 13 c-317 85 -779
87 -1105 4 l-73 -19 -72 46 c-100 65 -288 157 -371 183 -38 11 -107 24 -151
27 l-82 6 -20 -54 c-61 -165 -74 -376 -33 -526 l23 -83 -42 -50 c-103 -123
-179 -307 -201 -482 -25 -209 18 -531 97 -721 71 -169 213 -332 375 -428 135
-81 361 -153 559 -179 52 -7 96 -14 97 -15 2 -1 -21 -26 -51 -57 -59 -60 -108
-153 -125 -236 -6 -30 -11 -158 -11 -297 0 -135 -2 -245 -4 -245 -2 0 -51 16
-108 36 -534 185 -1004 619 -1238 1143 -319 714 -229 1534 236 2162 151 204
405 434 627 568 229 138 553 250 808 280 52 6 110 13 129 15 72 8 388 -4 482
-18z"/>
</g>
</svg>
